<svg version="1.1" id="Logos" xmlns="http://www.w3.org/2000/svg" xmlns:xlink="http://www.w3.org/1999/xlink" x="0px" y="0px"
	 viewBox="0 0 968 576" style="enable-background:new 0 0 968 576;" xml:space="preserve">
    <path id="XMLID_13_" d="M724.8,77h-91.6c-3,0-5.9,1.6-7.4,4.3L482.6,329.5c-3.3,5.7,0.8,12.8,7.4,12.8h91.6
        c3,0,5.9-1.6,7.4-4.3L732.2,89.8C735.5,84.1,731.4,77,724.8,77z"/>
    <path id="XMLID_11_" d="M881.1,77h-91.6c-3,0-5.9,1.6-7.4,4.3L638.9,329.5c-3.3,5.7,0.8,12.8,7.4,12.8h91.6
        c3,0,5.9-1.6,7.4-4.3L888.5,89.8C891.8,84.1,887.7,77,881.1,77z"/>
    <path id="XMLID_9_" d="M290.1,288.6h-91.6c-3,0-5.9,1.6-7.4,4.3L79.5,486.2c-3.3,5.7,0.8,12.8,7.4,12.8h91.6
        c3,0,5.9-1.6,7.4-4.3l111.7-193.4C300.8,295.6,296.7,288.6,290.1,288.6z"/>
    <path id="XMLID_8_" d="M568.5,77h-91.6c-3,0-5.9,1.6-7.4,4.3L235.8,486.2c-3.3,5.7,0.8,12.8,7.4,12.8h91.6
        c3,0,5.9-1.6,7.4-4.3L575.9,89.8C579.2,84.1,575.1,77,568.5,77z"/>
</svg>